PathFileType   4   (X/Y/Z)																																																																																																																	
DataRate	CameraRate	NumFrames	NumMarkers	Units	OrigDataRate	OrigDataStartFrame	OrigNumFrames																																																																																																										
120	120	10	37	mm	120	80	106																																																																																																										
Frame#	Time	midhip	hip_r	hip_l	knee_r	knee_l	ankle_r	ankle_l	midasis	asis_r	asis_l	psis_r	psis_l	epicondLat_r	epicondLat_l	epicondMed_r	epicondMed_l	malleolusLat_r	malleolusLat_l	malleolusMedv_r	malleolusMedv_l	neck	subclavicle_r	subclavicle_l	sternalnotch	xyphoidprocess	thighwand_r	thighwand_l	upperleg1_r	upperleg1_l	upperleg2_r	upperleg2_l	shankwand_r	shankwand_l	lowerleg1_r	lowerleg1_l	toe_r	toe_l																																																																											
 	 	X1	Y1	Z1	X2	Y2	Z2	X3	Y3	Z3	X4	Y4	Z4	X5	Y5	Z5	X6	Y6	Z6	X7	Y7	Z7	X8	Y8	Z8	X9	Y9	Z9	X10	Y10	Z10	X11	Y11	Z11	X12	Y12	Z12	X13	Y13	Z13	X14	Y14	Z14	X15	Y15	Z15	X16	Y16	Z16	X17	Y17	Z17	X18	Y18	Z18	X19	Y19	Z19	X20	Y20	Z20	X21	Y21	Z21	X22	Y22	Z22	X23	Y23	Z23	X24	Y24	Z24	X25	Y25	Z25	X26	Y26	Z26	X27	Y27	Z27	X28	Y28	Z28	X29	Y29	Z29	X30	Y30	Z30	X31	Y31	Z31	X32	Y32	Z32	X33	Y33	Z33	X34	Y34	Z34	X35	Y35	Z35	X36	Y36	Z36	X37	Y37	Z37	

	80	0.775	1533.141	897.519	-240.629	1534.532	888.525	-183.155	1526.213	887.447	-289.394	1535.058	479.947	-188.186	1671.631	488.04	-318.231	1430.247	74.457	-191.737	1433.554	147.592	-296.613	1616.196	978.272	-243.911	1624.166	979.305	-142.128	1608.226	977.239	-345.694	1424.259	1021.042	-198.854	1416.597	1018.873	-283.46	1542.058	479.229	-129.104	1662.606	489	-377.035	1519.195	492.921	-247.636	1682.979	481.084	-265.891	1427.311	74.884	-153.854	1425.299	150.922	-335.097	1431.623	78.149	-223.273	1444.945	157.704	-268.7	1498.88	1468.443	-235.062	1595.211	1393.453	-155.485	1594.788	1400.687	-311.086	1582.675	1398.658	-237.145	1618.876	1197.555	-253.345	1571.782	577.745	-45.712	1776.976	644.673	-357.999	1593.652	638.807	-114.322	1681.902	677.122	-380.81	1586.672	557.757	-141.11	1700.075	591.845	-373.897	1460.503	143.079	-85.482	1577.811	185.022	-312.472	1456.556	203.312	-144.902	1551.226	263.154	-315.532	1550.111	41.441	-194.248	1527.243	74.516	-302.872
	81	0.78333	1545.442	897.195	-240.824	1546.349	888.051	-183.608	1538.958	887.319	-289.919	1539.147	479.616	-187.85	1692.202	490.477	-317.543	1430.666	75.115	-191.801	1469.924	139.688	-295.73	1628.667	977.871	-243.364	1635.755	978.573	-141.417	1621.58	977.17	-345.31	1436.474	1020.89	-199.814	1429.421	1018.767	-284.416	1545.784	478.884	-128.726	1684.002	491.412	-376.468	1523.702	492.891	-247.041	1702.454	484.159	-265.283	1427.639	75.557	-153.924	1461.375	142.715	-334.175	1431.921	78.772	-223.33	1480.019	150.439	-267.721	1512.251	1468.215	-235.104	1608.541	1393.146	-155.523	1608.104	1400.249	-311.068	1595.999	1398.296	-237.154	1631.952	1197.136	-253.193	1576.943	577.341	-45.125	1794.722	649.832	-355.354	1599.69	638.056	-113.68	1699.295	680.374	-380.117	1591.748	556.905	-140.465	1719.294	595.234	-372.853	1461.273	143.418	-85.476	1611.888	183.794	-312.016	1457.933	203.686	-144.9	1582.032	260.764	-315.1	1550.322	41.51	-194.182	1567.222	72.066	-302.139
	82	0.79167	1557.699	896.665	-240.992	1558.203	887.448	-184.214	1551.767	887.019	-290.589	1543.117	479.309	-187.489	1712.258	492.588	-316.86	1431.098	75.863	-191.867	1506.807	131.865	-295.038	1641.158	977.337	-242.979	1647.337	977.75	-140.842	1634.978	976.925	-345.116	1448.691	1020.588	-200.764	1442.243	1018.466	-285.46	1549.53	478.598	-128.34	1705.017	493.574	-375.909	1528.225	492.927	-246.447	1720.047	487.357	-264.012	1427.981	76.317	-153.997	1498.014	134.549	-333.453	1431.954	79.593	-223.51	1516.158	143.217	-266.903	1525.626	1467.831	-235.228	1621.636	1392.582	-155.506	1621.426	1399.577	-311.097	1609.217	1397.706	-237.178	1644.705	1196.447	-253.026	1582.374	576.977	-44.597	1812.078	654.707	-352.372	1605.939	637.299	-113.078	1716.811	683.472	-379.348	1596.966	556.047	-139.877	1737.87	598.253	-371.408	1462.04	143.843	-85.461	1646.249	182.751	-311.616	1459.388	204.156	-144.886	1613.024	258.257	-314.65	1550.599	41.607	-194.115	1607.513	69.818	-301.788
	83	0.8	1569.922	895.939	-241.14	1570.094	886.723	-184.954	1564.644	886.546	-291.384	1547.052	479.035	-187.116	1731.795	494.343	-316.211	1431.56	76.704	-191.943	1544.169	124.216	-294.54	1653.67	976.672	-242.738	1658.911	976.842	-140.392	1648.429	976.502	-345.084	1460.91	1020.139	-201.728	1455.068	1017.97	-286.603	1553.34	478.366	-127.953	1725.626	495.46	-375.38	1532.693	492.785	-245.658	1736.943	490.006	-263.121	1428.353	77.17	-154.081	1535.193	126.518	-332.938	1431.789	80.635	-223.812	1553.144	136.015	-266.391	1538.984	1467.288	-235.371	1634.8	1391.774	-155.476	1634.798	1398.708	-311.151	1622.494	1396.896	-237.205	1657.514	1195.546	-252.926	1588.029	576.636	-44.144	1829.041	659.234	-349.131	1612.441	636.369	-112.679	1734.225	686.227	-378.392	1602.314	555.232	-139.237	1756.116	601.14	-369.973	1462.828	144.366	-85.427	1680.807	181.95	-311.254	1460.795	204.782	-144.879	1644.108	255.746	-314.223	1550.889	41.707	-194.06	1648.056	67.854	-301.78
	84	0.80833	1582.207	895.086	-241.238	1582.037	885.884	-185.786	1577.603	885.907	-292.264	1551.063	478.796	-186.747	1750.805	495.722	-315.626	1432.048	77.642	-192.025	1581.971	116.839	-294.241	1666.215	975.887	-242.603	1670.486	975.865	-140.04	1661.945	975.909	-345.165	1473.136	1019.548	-202.744	1467.932	1017.27	-287.837	1557.27	478.184	-127.575	1745.797	497.047	-374.9	1537.209	492.577	-244.813	1753.626	491.91	-262.707	1428.75	78.123	-154.171	1572.873	118.726	-332.633	1431.96	81.731	-223.971	1590.888	129.134	-266.189	1552.317	1466.584	-235.526	1648.209	1390.92	-155.556	1648.198	1397.675	-311.259	1635.9	1395.963	-237.3	1670.666	1194.551	-252.792	1593.856	576.302	-43.776	1845.588	663.337	-345.692	1619.045	635.502	-112.427	1751.246	688.591	-377.13	1607.773	554.462	-138.662	1773.988	603.823	-368.561	1463.652	144.988	-85.377	1715.443	181.444	-310.943	1462.197	205.497	-144.874	1675.203	253.288	-313.909	1551.152	41.797	-194.012	1688.785	66.256	-302.049
	85	0.81667	1594.539	894.068	-241.257	1594.051	884.938	-186.677	1590.675	885.115	-293.194	1555.177	478.604	-186.39	1769.285	496.707	-315.134	1432.53	78.688	-192.112	1620.156	109.834	-294.139	1678.813	974.999	-242.527	1682.071	974.829	-139.744	1675.556	975.17	-345.309	1485.393	1018.817	-203.845	1480.884	1016.367	-289.146	1561.335	478.057	-127.212	1765.506	498.322	-374.492	1541.883	492.33	-244.078	1770.62	493.191	-262.421	1429.148	79.184	-154.266	1610.998	111.28	-332.535	1432.514	82.776	-223.948	1629.004	122.536	-266.128	1565.664	1465.757	-235.707	1661.5	1389.999	-155.678	1661.633	1396.516	-311.394	1649.269	1394.934	-237.442	1683.769	1193.451	-252.596	1599.844	575.974	-43.498	1861.721	666.947	-342.113	1625.646	634.766	-112.323	1767.725	690.544	-375.624	1613.35	553.708	-138.272	1791.63	606.151	-367.059	1464.512	145.712	-85.324	1750.061	181.303	-310.694	1463.677	206.255	-144.81	1706.242	250.908	-313.735	1551.357	41.871	-193.962	1729.63	65.086	-302.507
	86	0.825	1606.896	892.847	-241.192	1606.162	883.893	-187.594	1603.892	884.183	-294.14	1559.394	478.475	-186.061	1787.226	497.284	-314.758	1433.013	79.849	-192.212	1658.652	103.302	-294.236	1691.491	974.021	-242.465	1693.686	973.741	-139.461	1689.295	974.301	-345.469	1497.701	1017.949	-205.063	1493.963	1015.269	-290.514	1565.539	477.99	-126.881	1784.726	499.266	-374.173	1546.449	492.232	-243.507	1787.709	493.926	-262.278	1429.55	80.363	-154.374	1649.505	104.286	-332.65	1433.209	83.855	-223.93	1667.12	116.005	-266.174	1579.085	1464.788	-235.855	1674.681	1388.937	-155.756	1675.082	1395.25	-311.534	1662.593	1393.788	-237.574	1696.737	1192.22	-252.405	1606.013	575.653	-43.31	1877.452	669.99	-338.441	1632.274	634.043	-112.389	1783.764	692.087	-374.02	1618.963	553.043	-138.097	1809.043	608.099	-365.531	1465.393	146.541	-85.294	1784.575	181.59	-310.498	1465.214	207.104	-144.76	1737.268	248.72	-313.652	1551.489	41.928	-193.912	1770.496	64.395	-303.058
	87	0.83333	1619.389	891.528	-241.053	1618.385	882.759	-188.478	1617.257	883.122	-295.041	1563.725	478.425	-185.778	1804.643	497.452	-314.511	1433.529	81.127	-192.335	1697.357	97.346	-294.543	1704.261	972.958	-242.368	1705.355	972.606	-139.154	1703.168	973.31	-345.582	1510.076	1016.955	-206.421	1507.196	1014.001	-291.93	1569.889	477.987	-126.6	1803.447	499.872	-373.95	1551.059	492.378	-243.108	1804.553	494.043	-262.35	1429.972	81.668	-154.506	1688.308	97.854	-332.989	1434.016	85.072	-223.993	1706.03	109.899	-266.515	1592.519	1463.66	-236.067	1687.932	1387.766	-155.804	1688.561	1393.91	-311.711	1675.966	1392.543	-237.705	1709.882	1190.917	-252.264	1612.365	575.328	-43.219	1892.802	672.386	-334.737	1638.963	633.375	-112.519	1799.409	693.195	-372.248	1624.68	552.534	-138.072	1826.048	609.625	-363.999	1466.277	147.483	-85.299	1818.882	182.347	-310.329	1466.804	208.011	-144.742	1768.302	246.82	-313.568	1551.576	41.984	-193.871	1811.251	64.206	-303.604
	88	0.84167	1632.128	890.222	-240.87	1630.715	881.542	-189.288	1630.764	881.946	-295.858	1568.212	478.468	-185.55	1821.599	497.23	-314.391	1434.108	82.525	-192.49	1736.124	92.064	-295.061	1717.124	971.817	-242.191	1717.076	971.425	-138.801	1717.172	972.209	-345.581	1522.528	1015.844	-207.923	1520.588	1012.584	-293.398	1574.408	478.056	-126.375	1821.687	500.137	-373.82	1555.983	492.562	-242.704	1820.521	493.544	-262.788	1430.435	83.106	-154.672	1727.28	92.093	-333.558	1434.834	86.459	-224.097	1743.4	104.847	-266.755	1605.922	1462.427	-236.445	1701.171	1386.474	-155.862	1702.124	1392.508	-311.884	1689.376	1391.203	-237.847	1723.171	1189.541	-252.191	1618.88	574.999	-43.22	1907.779	674.057	-331.105	1645.78	632.858	-112.655	1815.096	693.881	-370.42	1630.614	552.135	-138.046	1842.673	610.663	-362.564	1467.165	148.551	-85.339	1852.867	183.604	-310.144	1468.451	209.017	-144.707	1799.176	245.244	-313.536	1551.674	42.058	-193.829	1851.745	64.499	-304.039
	89	0.85	1645.091	888.927	-240.749	1643.136	880.246	-190.008	1644.412	880.667	-296.57	1572.876	478.605	-185.372	1838.175	496.654	-314.377	1434.78	84.052	-192.678	1774.762	87.533	-295.775	1730.072	970.602	-241.9	1728.832	970.194	-138.39	1731.311	971.011	-345.41	1535.066	1014.613	-209.558	1534.103	1011.047	-294.938	1579.122	478.196	-126.202	1839.477	500.065	-373.765	1560.964	492.887	-242.333	1835.18	492.474	-263.674	1430.963	84.688	-154.875	1766.242	87.1	-334.343	1435.663	87.983	-224.24	1781.179	100.384	-267.318	1619.368	1461.096	-236.958	1714.367	1385.135	-156.045	1715.694	1391.028	-312.151	1702.77	1389.8	-238.102	1736.435	1188.097	-252.181	1625.586	574.676	-43.296	1922.419	674.965	-327.686	1652.811	632.416	-112.824	1830.929	694.103	-368.784	1636.677	551.742	-138.09	1858.842	611.108	-361.373	1468.074	149.758	-85.423	1886.414	185.379	-309.898	1470.182	210.204	-144.744	1829.755	243.975	-313.693	1551.823	42.158	-193.771	1891.797	65.221	-304.28
